HIERARCHY
ROOT Hips
{
	OFFSET -0.179506 -22.333345 2.821913
	CHANNELS 6 Xposition Yposition Zposition Zrotation Yrotation Xrotation 
	JOINT LeftUpLeg
	{
		OFFSET 6.951974 -9.140623 -0.681533
		CHANNELS 3 Zrotation Yrotation Xrotation
		JOINT LeftLeg
		{
			OFFSET 3.427654 -37.519855 -0.449580
			CHANNELS 3 Zrotation Yrotation Xrotation
			JOINT LeftFoot
			{
				OFFSET -1.359570 -39.796059 -4.369333
				CHANNELS 3 Zrotation Yrotation Xrotation
				JOINT LeftToe
				{
					OFFSET 2.635814 -5.579078 11.928840
					CHANNELS 3 Zrotation Yrotation Xrotation
					End Site
					{
						OFFSET 0.000000 0.000000 0.000000
					}
				}
			}
		}
	}
	JOINT RightUpLeg
	{
		OFFSET -6.767048 -9.052170 -0.431982
		CHANNELS 3 Zrotation Yrotation Xrotation
		JOINT RightLeg
		{
			OFFSET -3.829005 -38.256897 -0.885003
			CHANNELS 3 Zrotation Yrotation Xrotation
			JOINT RightFoot
			{
				OFFSET 1.577377 -39.841461 -4.231180
				CHANNELS 3 Zrotation Yrotation Xrotation
				JOINT RightToe
				{
					OFFSET -2.537174 -4.814398 12.334795
					CHANNELS 3 Zrotation Yrotation Xrotation
					End Site
					{
						OFFSET 0.000000 0.000000 0.000000
					}
				}
			}
		}
	}
	JOINT Spine
	{
		OFFSET -0.253288 10.896323 -2.669631
		CHANNELS 3 Zrotation Yrotation Xrotation
		JOINT Spine1
		{
			OFFSET 0.548704 13.518043 0.109247
			CHANNELS 3 Zrotation Yrotation Xrotation
			JOINT Spine2
			{
				OFFSET 0.145701 5.292222 2.542457
				CHANNELS 3 Zrotation Yrotation Xrotation
				JOINT Neck
				{
					OFFSET -0.277840 21.387037 -4.285703
					CHANNELS 3 Zrotation Yrotation Xrotation
					JOINT Head
					{
						OFFSET 0.515184 6.496960 5.134897
						CHANNELS 3 Zrotation Yrotation Xrotation
						End Site
						{
							OFFSET 0.000000 0.000000 0.000000
						}
					}
				}
				JOINT LeftShoulder
				{
					OFFSET 7.884473 12.174932 -3.408961
					CHANNELS 3 Zrotation Yrotation Xrotation
					JOINT LeftArm
					{
						OFFSET 9.097692 3.046888 -0.886815
						CHANNELS 3 Zrotation Yrotation Xrotation
						JOINT LeftForeArm
						{
							OFFSET 25.961220 -1.277207 -2.745643
							CHANNELS 3 Zrotation Yrotation Xrotation
							JOINT LeftHand
							{
								OFFSET 24.923361 0.898606 -0.117091
								CHANNELS 3 Zrotation Yrotation Xrotation
								End Site
								{
									OFFSET 0.000000 0.000000 0.000000
								}
							}
						}
					}
				}
				JOINT RightShoulder
				{
					OFFSET -8.175920 11.883285 -3.861528
					CHANNELS 3 Zrotation Yrotation Xrotation
					JOINT RightArm
					{
						OFFSET -9.601238 3.255117 -0.914307
						CHANNELS 3 Zrotation Yrotation Xrotation
						JOINT RightForeArm
						{
							OFFSET -25.374195 -1.332924 -2.140099
							CHANNELS 3 Zrotation Yrotation Xrotation
							JOINT RightHand
							{
								OFFSET -25.529810 0.777228 -0.555919
								CHANNELS 3 Zrotation Yrotation Xrotation
								End Site
								{
									OFFSET 0.000000 0.000000 0.000000
								}
							}
						}
					}
				}
			}
		}
	}
}
MOTION
Frames: 12
Frame Time: 0.033333
-40.191368 18.737207 95.867722 -149.842196 5.679046 88.465157 -5.369033 -4.358958 12.990683 3.514350 -20.195802 -3.571987 -1.574585 7.944211 -5.976362 nan nan nan -0.220888 2.800568 -19.927294 0.430227 -3.607684 18.596509 5.309886 -9.941884 2.070316 nan nan nan -1.598517 -4.972003 5.645263 6.234472 -4.446368 4.920268 2.690295 -2.915629 -0.788529 1.525913 -3.122188 0.433178 11.467983 -0.416992 -7.295793 -17.332368 0.555212 -1.978868 -65.192535 -19.629014 18.113767 12.232260 -27.579081 -21.146433 -5.736229 -19.258736 -15.531090 15.852180 -6.157111 -1.381588 61.705952 -4.697669 7.350981 -9.563316 30.540668 -8.025716 10.529842 13.819501 -14.063259 
-40.461132 19.464588 95.761765 -148.968954 5.749681 88.658016 -5.030431 -4.398446 13.574847 3.625017 -20.682754 -3.964963 -1.755810 7.516562 -6.344581 nan nan nan -0.151331 2.656453 -20.127595 0.730143 -3.633048 16.024298 5.730073 -9.576386 2.669464 nan nan nan -1.783608 -5.100585 5.673454 6.370690 -4.513520 4.843484 2.930747 -3.126036 -0.824244 1.620101 -3.262425 0.314216 11.574027 -0.484989 -7.292442 -17.409981 0.467639 -1.873484 -65.436736 -20.341882 18.043071 12.536816 -27.796083 -22.224224 -8.078318 -19.466260 -14.512204 15.762380 -6.329305 -1.396571 61.693604 -5.073618 7.145095 -9.265551 30.499538 -7.966535 15.431881 13.696727 -14.235191 
-40.745960 20.188305 95.633705 -148.235148 5.746324 88.900712 -4.789941 -4.394838 14.077379 3.761628 -21.224531 -4.368519 -1.972450 7.187070 -6.683157 nan nan nan -0.103457 2.476533 -20.403704 1.003974 -3.469086 13.464485 6.158738 -9.147912 3.203685 nan nan nan -1.962509 -5.121591 5.430731 6.537712 -4.570342 5.104696 3.019114 -3.364807 -0.988353 1.792389 -3.344071 0.144459 11.667933 -0.684525 -7.169122 -17.461683 0.443851 -1.749103 -65.419951 -20.996880 18.339360 12.370395 -28.335223 -22.396638 -7.254647 -20.054655 -14.341272 15.806374 -6.498102 -1.432985 61.648484 -5.352810 7.157229 -9.272284 30.231420 -8.105999 14.988515 13.902217 -14.484680 
-41.022686 20.888945 95.502419 -147.432648 5.707575 89.170752 -4.615426 -4.479320 14.511197 3.936649 -21.835199 -4.713868 -2.239418 6.997464 -7.043017 nan nan nan -0.064643 2.217436 -20.648512 1.294783 -3.301673 10.805625 6.516809 -8.770784 3.822302 nan nan nan -2.252710 -5.074739 5.043401 6.806694 -4.788179 5.693932 3.112132 -3.577548 -1.254427 1.922350 -3.258999 -0.243364 11.827216 -0.981242 -6.980706 -17.346429 0.134403 -1.431189 -65.246196 -21.655203 18.938640 11.945054 -28.965034 -22.167536 -4.108162 -20.897128 -15.061294 15.957637 -6.576435 -1.484936 61.619873 -5.587654 7.136491 -9.665494 29.908270 -8.615908 10.552637 14.233340 -14.829625 
-41.338718 21.598951 95.351288 -146.579234 5.600341 89.381680 -4.525362 -4.538682 14.927476 4.005274 -22.383205 -4.813554 -2.346338 6.764745 -7.501798 nan nan nan -0.096068 1.789112 -20.785966 1.608527 -3.119914 8.170347 6.933976 -8.562879 4.307113 nan nan nan -2.500767 -5.045708 4.821971 6.941088 -5.015106 6.042196 3.174765 -3.769346 -1.447090 2.031201 -3.479843 -0.582016 12.021385 -1.111115 -6.780318 -17.648683 0.062327 -1.288007 -65.011947 -22.258977 19.167729 11.945318 -29.624613 -22.210213 -3.058414 -21.024689 -15.053735 16.180101 -6.808512 -1.501720 61.548557 -5.732428 6.964009 -10.020353 29.595204 -8.965854 8.824888 14.092225 -14.619329 
-41.681404 22.364910 95.203415 -145.906259 5.501880 89.455709 -4.307077 -4.319763 15.579926 4.003488 -22.904810 -5.054982 -2.532602 6.313066 -7.838957 nan nan nan -0.039063 1.317811 -20.756612 1.857726 -2.896295 5.652538 7.352098 -8.285942 4.582053 nan nan nan -2.765525 -5.050265 4.766709 7.021311 -5.074084 6.053282 3.343867 -3.971556 -1.368868 2.085906 -3.595283 -0.724610 12.142158 -1.109704 -6.818621 -18.034647 0.027180 -1.201063 -64.813900 -22.782483 19.096155 12.040868 -30.130925 -22.581488 -3.832348 -20.875256 -14.186022 16.378462 -7.065113 -1.425507 61.369004 -5.760687 6.349485 -10.186050 29.427598 -9.186840 9.895525 13.468131 -13.453213 
-42.000404 23.153118 95.045311 -145.455788 5.373909 89.529504 -4.107603 -3.991702 16.249549 4.050226 -23.309033 -5.373196 -2.744597 5.923372 -8.144360 nan nan nan 0.098797 0.970457 -20.824349 2.027900 -2.761558 3.298290 7.608614 -7.913618 4.779144 nan nan nan -3.053041 -5.060829 4.632422 7.055510 -5.030807 6.231356 3.520075 -4.178655 -1.396229 2.170634 -3.403822 -0.792070 12.265346 -1.064338 -6.959654 -18.336753 0.049816 -1.222565 -64.556862 -23.155065 19.082335 12.086412 -30.595882 -22.658333 -4.789072 -20.945733 -13.417589 16.480940 -7.325169 -1.375509 61.343065 -5.655924 5.747238 -10.262567 29.045471 -9.414219 10.910159 13.026368 -12.158201 
-42.315952 23.942057 94.870148 -145.070118 5.345737 89.579383 -3.868861 -3.782740 16.969705 4.173801 -23.684462 -5.732152 -2.885002 5.735026 -8.548761 nan nan nan 0.386033 0.747245 -20.882949 2.252237 -2.724716 1.047448 7.995189 -7.766520 5.041426 nan nan nan -3.262879 -5.087911 4.563967 7.122917 -4.978896 6.333519 3.644992 -4.261699 -1.370004 2.303730 -3.314514 -1.064543 12.393642 -1.164661 -6.854985 -18.483208 -0.041852 -1.206602 -64.370919 -23.441330 19.242565 12.017680 -31.113415 -22.582744 -4.904775 -21.190693 -13.191594 16.593311 -7.486430 -1.345809 61.298143 -5.707845 5.390646 -10.295320 28.730881 -9.560811 11.076413 12.909921 -11.786458 
-42.633701 24.737186 94.686661 -144.592762 5.314385 89.678171 -3.648098 -3.725497 17.655133 4.324328 -24.085182 -6.079144 -3.074029 5.579784 -8.971792 nan nan nan 0.615130 0.554570 -21.005763 2.540513 -2.577992 -0.799718 8.405503 -7.682804 5.308969 nan nan nan -3.509655 -5.081339 4.402760 7.239601 -4.992221 6.568545 3.745959 -4.294616 -1.487453 2.394164 -3.370267 -1.315798 12.523885 -1.553918 -6.683450 -18.407053 -0.191534 -1.057479 -64.370260 -23.851900 19.510115 11.933647 -31.402602 -22.771400 -5.089806 -21.281975 -12.969579 16.789967 -7.506150 -1.376808 61.163195 -6.055197 5.270045 -10.436279 28.584059 -9.767200 11.270641 12.800907 -11.862342 
-42.970917 25.547226 94.502563 -144.089032 5.295051 89.824708 -3.467806 -3.830897 18.368504 4.548777 -24.466894 -6.510845 -3.299461 5.576922 -9.355513 nan nan nan 0.848187 0.343138 -21.177158 2.752596 -2.601335 -2.495039 8.753551 -7.776420 5.663321 nan nan nan -3.765812 -5.053665 4.093921 7.404771 -5.041697 6.895752 3.833841 -4.336328 -1.702852 2.435462 -3.544626 -1.419162 12.648436 -1.895300 -6.451004 -18.230172 -0.150784 -0.831305 -64.505942 -24.436059 19.712729 11.523171 -31.567599 -22.871065 -5.392111 -21.452729 -12.470210 16.929200 -7.599689 -1.363738 61.064551 -6.292997 5.150563 -10.611788 28.238179 -10.033917 11.617766 12.824189 -11.960837 
-43.326466 26.356220 94.298294 -143.603768 5.232485 89.942831 -3.305024 -3.678074 19.135318 4.851815 -24.724043 -7.020226 -3.482930 5.380316 -9.721742 nan nan nan 1.116811 0.010620 -21.448291 2.904776 -2.846629 -3.823236 9.301842 -7.822285 5.854322 nan nan nan -3.934646 -5.145511 3.834240 7.439600 -5.052367 7.069238 3.892977 -4.383952 -1.737504 2.466299 -3.591882 -1.461762 12.849067 -2.095209 -6.408772 -18.214237 -0.075460 -0.769870 -64.790110 -24.748905 19.818330 11.573971 -31.856785 -23.032937 -5.653722 -21.615479 -11.606306 17.062945 -7.714447 -1.202617 61.013192 -6.256506 4.823488 -10.793988 27.843478 -10.178763 12.162233 12.770925 -11.525536 
-43.677395 27.138809 94.047798 -143.146349 5.173200 90.153705 -3.120902 -3.474498 19.770835 5.124530 -25.056415 -7.510449 -3.558675 5.235958 -10.128974 nan nan nan 1.368026 -0.234900 -22.005692 3.092363 -3.077625 -4.584011 9.711416 -8.055583 5.745572 nan nan nan -4.043218 -5.299098 3.620867 7.466191 -4.997865 6.924585 3.983462 -4.495932 -1.511043 2.404965 -3.578760 -1.502908 12.988443 -1.987643 -6.525502 -18.502830 -0.106804 -0.807587 -64.601819 -24.881501 19.764114 11.694562 -32.339282 -22.979812 -6.935543 -21.359919 -11.023893 17.154136 -7.888798 -1.108100 60.985733 -6.200562 4.394176 -11.053463 27.751345 -10.256184 13.060667 12.259814 -11.063668 
